<svg width="151" height="151" viewBox="0 0 151 151" fill="none" xmlns="http://www.w3.org/2000/svg">
<path fill-rule="evenodd" clip-rule="evenodd" d="M74.3851 0.00704383C74.7305 0.00235262 75.0841 0 75.4295 0C75.7748 0 76.1202 0.00235262 76.4656 0.00704383L76.0215 32.896C75.8242 32.8933 75.6268 32.892 75.4295 32.892C75.2321 32.892 75.0348 32.8933 74.8375 32.896L74.3851 0.00704383ZM68.1768 0.344853C68.8676 0.279224 69.5583 0.222836 70.2491 0.175799L72.4775 32.9919C72.091 33.0185 71.6962 33.0504 71.3098 33.0875L68.1768 0.344853ZM80.61 0.175799C81.3007 0.222836 81.9915 0.279226 82.674 0.344853L79.541 33.0875C79.1545 33.0504 78.7681 33.0185 78.3734 32.9919L80.61 0.175799ZM86.8019 0.853765C87.4845 0.957998 88.167 1.07155 88.8495 1.19429L83.0275 33.5664C82.641 33.4973 82.2629 33.4334 81.8681 33.3747L86.8019 0.853765ZM62.0014 1.19429C62.6839 1.07155 63.3664 0.957998 64.0571 0.853766L68.9827 33.3747C68.5962 33.4334 68.2097 33.4973 67.8232 33.5664L62.0014 1.19429ZM55.9081 2.55382C56.5824 2.37501 57.2484 2.20516 57.9309 2.04442L65.5372 34.0442C65.1589 34.1344 64.7807 34.2298 64.4024 34.3302L55.9081 2.55382ZM92.928 2.04442C93.6023 2.20516 94.2766 2.37501 94.9426 2.55382L86.4483 34.3302C86.0783 34.2298 85.7 34.1344 85.3218 34.0442L92.928 2.04442ZM49.9464 4.41634C50.6043 4.18235 51.2539 3.95707 51.92 3.74063L62.1658 34.9961C61.7958 35.1177 61.4257 35.2441 61.0557 35.3754L49.9464 4.41634ZM98.939 3.74063C99.5968 3.95707 100.255 4.18235 100.904 4.41634L89.795 35.3754C89.4332 35.2441 89.0632 35.1177 88.6932 34.9961L98.939 3.74063ZM44.1657 6.76811C44.7988 6.48042 45.4321 6.20111 46.0734 5.93036L58.8848 36.2256C58.523 36.3777 58.1613 36.5347 57.8077 36.6964L44.1657 6.76811ZM104.786 5.93036C105.419 6.20111 106.06 6.48042 106.693 6.76812L93.0432 36.6964C92.6896 36.5347 92.3359 36.3777 91.9741 36.2256L104.786 5.93036ZM110.427 8.59808C111.043 8.92041 111.652 9.25095 112.252 9.58941L96.1761 38.284C95.8389 38.0933 95.4936 37.9073 95.1482 37.7258L110.427 8.59808ZM38.5988 9.58941C39.2073 9.25095 39.8158 8.92041 40.4325 8.59808L55.7108 37.7258C55.3654 37.9073 55.02 38.0933 54.6747 38.284L38.5988 9.58941ZM115.821 11.7209C116.405 12.0924 116.988 12.4717 117.564 12.8587L99.1693 40.1278C98.8486 39.9094 98.5197 39.6953 98.1908 39.4857L115.821 11.7209ZM33.2949 12.8587C33.8705 12.4717 34.4461 12.0924 35.0299 11.7209L52.6683 39.4857C52.3394 39.6953 52.0104 39.9094 51.6815 40.1278L33.2949 12.8587ZM120.944 15.2756C121.495 15.6938 122.037 16.1194 122.58 16.5524L102.006 42.2151C101.702 41.9703 101.39 41.7296 101.077 41.4932L120.944 15.2756ZM28.2789 16.5524C28.8134 16.1194 29.3643 15.6938 29.9152 15.2756L49.7738 41.4932C49.4613 41.7296 49.1571 41.9703 48.8528 42.2151L28.2789 16.5524ZM23.5836 20.6437C24.0852 20.168 24.595 19.6992 25.1048 19.2374L47.0602 43.7341C46.7641 43.9955 46.4764 44.2608 46.1968 44.5301L23.5836 20.6437ZM125.746 19.2374C126.264 19.6992 126.774 20.168 127.275 20.6437L104.662 44.53C104.374 44.2608 104.087 43.9955 103.799 43.7341L125.746 19.2374ZM130.211 23.5792C130.68 24.0816 131.149 24.5907 131.617 25.1061L107.121 47.0558C106.858 46.7642 106.595 46.476 106.323 46.1916L130.211 23.5792ZM19.2418 25.1061C19.7023 24.5907 20.171 24.0816 20.6479 23.5792L44.5357 46.1916C44.2644 46.476 44.0013 46.7642 43.7381 47.0558L19.2418 25.1061ZM15.2783 29.9113C15.6977 29.3592 16.1253 28.8131 16.5529 28.2732L42.2168 48.8475C41.9701 49.1529 41.7316 49.4617 41.4932 49.7741L15.2783 29.9113ZM134.861 28.2732C135.288 28.8131 135.715 29.3592 136.134 29.9113L109.883 49.7741C109.644 49.4617 109.406 49.1529 109.159 48.8475L134.861 28.2732ZM140.858 32.4481C141.171 32.9307 141.487 33.4183 141.803 33.9137L113.179 50.4405C112.946 50.0933 112.711 49.7566 112.486 49.4327L140.858 32.4481ZM10.1819 33.9137C10.4977 33.4183 10.8136 32.9307 11.1268 32.4481L39.4945 49.4327C39.2692 49.7566 39.0343 50.0933 38.801 50.4405L10.1819 33.9137ZM146.614 37.0193C146.872 37.4878 147.135 37.9587 147.396 38.4243L117.191 51.3375C116.986 51.1211 116.782 50.9085 116.575 50.6937L146.614 37.0193ZM5.75417 38.4243C6.01455 37.9587 6.27629 37.4878 6.53566 37.0193L36.5741 50.6937C36.3665 50.9085 36.1626 51.1211 35.9576 51.3375L5.75417 38.4243ZM152.009 41.5935C152.011 42.0868 152.012 42.5805 152.012 43.0745C152.012 43.5686 152.011 44.0623 152.009 44.5556L121.191 54.1234C121.224 54.7461 121.249 55.3689 121.278 55.9863L152.009 41.5935ZM0.0120702 43.0745C0.0120702 42.5805 0.0120702 42.0868 0.0120702 41.5935L30.7581 55.9863C30.7871 55.3689 30.8126 54.7461 30.8475 54.1234L0.0120702 43.0745ZM152.002 75.133C152.002 75.0983 152.002 75.0639 152.002 75.0294L121.1 66.5709C121.052 67.5205 121.005 68.4743 120.963 69.4262L152.002 75.133ZM0.0120687 75.0294C0.0120687 75.0639 0.0120687 75.0983 0.0120687 75.133L30.8475 69.4262C30.8126 68.4743 30.7871 67.5205 30.7581 66.5709L0.0120687 75.0294ZM152.003 107.04C152.003 106.937 152.003 106.833 152.003 106.73L121.058 97.2093C121.021 98.1692 120.993 99.1313 120.965 100.093L152.003 107.04ZM0.0120739 106.73C0.0120739 106.833 0.0120739 106.937 0.0120739 107.04L30.7582 100.093C30.7871 99.1313 30.8127 98.1692 30.8476 97.2093L0.0120739 106.73ZM152.004 138.294C152.004 138.174 152.004 138.054 152.004 137.934L121.074 128.548C121.073 129.477 121.074 130.418 121.075 131.369L152.004 138.294ZM0.0120716 137.934C0.0120716 138.054 0.0120716 138.174 0.0120716 138.294L30.7581 131.369C30.8127 130.418 30.7871 129.477 30.7581 128.548L0.0120716 137.934ZM146.007 129.83C146.009 129.244 146.011 128.658 146.011 128.074L116.617 119.509C116.593 120.354 116.57 121.195 116.54 122.033L146.007 129.83ZM5.99642 128.074C5.99642 128.658 5.99642 129.244 5.99642 129.83L36.522 122.033C36.5402 121.195 36.5647 120.354 36.5887 119.509L5.99642 128.074ZM152.002 160.028C152.002 159.971 152.002 159.914 152.002 159.856L120.998 150.041C121.032 150.972 121.063 151.906 121.095 152.841L152.002 160.028ZM0.0120716 159.856C0.0120716 159.914 0.0120716 159.971 0.0120716 160.028L30.7581 152.841C30.7871 151.906 30.8127 150.972 30.8476 150.041L0.0120716 159.856Z" fill="#7AE7C7"/>
</svg>
